<svg width="132" height="36" viewBox="0 0 132 36" fill="none" xmlns="http://www.w3.org/2000/svg">
<path d="M14.184 1.134C16.26 1.134 18.126 1.452 19.782 2.088C21.438 2.724 22.848 3.636 24.012 4.824C25.188 6 26.088 7.41 26.712 9.054C27.336 10.686 27.648 12.504 27.648 14.508C27.648 16.368 27.342 18.096 26.73 19.692C26.118 21.288 25.236 22.686 24.084 23.886C22.944 25.074 21.558 26.004 19.926 26.676C18.306 27.336 16.482 27.666 14.454 27.666C12.366 27.666 10.488 27.348 8.82 26.712C7.164 26.076 5.748 25.17 4.572 23.994C3.408 22.818 2.52 21.408 1.908 19.764C1.296 18.108 0.99 16.266 0.99 14.238C0.99 12.402 1.296 10.686 1.908 9.09C2.52 7.494 3.396 6.102 4.536 4.914C5.688 3.726 7.074 2.802 8.694 2.142C10.326 1.47 12.156 1.134 14.184 1.134ZM19.188 19.602C19.188 17.97 19.056 16.368 18.792 14.796C18.54 13.212 18.186 11.736 17.73 10.368C17.286 8.988 16.776 7.776 16.2 6.732C15.636 5.676 15.042 4.854 14.418 4.266C13.794 3.666 13.17 3.366 12.546 3.366C11.898 3.366 11.352 3.588 10.908 4.032C10.464 4.464 10.128 5.112 9.9 5.976C9.684 6.828 9.576 7.884 9.576 9.144C9.576 10.776 9.702 12.384 9.954 13.968C10.218 15.552 10.572 17.04 11.016 18.432C11.46 19.812 11.964 21.03 12.528 22.086C13.104 23.13 13.704 23.952 14.328 24.552C14.964 25.14 15.594 25.434 16.218 25.434C16.878 25.434 17.424 25.218 17.856 24.786C18.3 24.342 18.63 23.688 18.846 22.824C19.074 21.96 19.188 20.886 19.188 19.602ZM14.652 20.808C14.544 20.4 14.532 20.04 14.616 19.728C14.7 19.416 14.922 19.206 15.282 19.098C15.678 18.99 15.996 19.044 16.236 19.26C16.476 19.464 16.65 19.758 16.758 20.142C17.214 21.654 17.7 22.902 18.216 23.886C18.732 24.858 19.296 25.62 19.908 26.172C20.52 26.712 21.204 27.09 21.96 27.306C22.728 27.534 23.58 27.648 24.516 27.648C25.2 27.648 25.716 27.576 26.064 27.432C26.424 27.288 26.718 27.144 26.946 27C27.174 26.856 27.432 26.772 27.72 26.748C27.936 26.736 28.098 26.784 28.206 26.892C28.314 27 28.374 27.168 28.386 27.396C28.386 27.552 28.362 27.726 28.314 27.918C28.266 28.11 28.182 28.332 28.062 28.584L27.018 30.96C26.826 31.392 26.526 31.71 26.118 31.914C25.722 32.13 25.14 32.238 24.372 32.238C23.316 32.238 22.32 32.028 21.384 31.608C20.448 31.188 19.566 30.522 18.738 29.61C17.922 28.698 17.172 27.516 16.488 26.064C15.804 24.612 15.192 22.86 14.652 20.808ZM38.1718 17.19C38.1718 15.402 38.4058 13.926 38.8738 12.762C39.3538 11.598 39.9898 10.734 40.7818 10.17C41.5738 9.594 42.4378 9.306 43.3738 9.306C44.5978 9.306 45.5338 9.678 46.1818 10.422C46.8418 11.166 47.1718 12.294 47.1718 13.806C47.1718 15.342 46.8598 16.476 46.2358 17.208C45.6118 17.928 44.8018 18.288 43.8058 18.288C42.8098 18.288 42.0658 18.03 41.5738 17.514C41.0818 16.998 40.8298 16.284 40.8178 15.372V14.616C40.8058 14.316 40.7398 14.088 40.6198 13.932C40.4998 13.764 40.3078 13.68 40.0438 13.68C39.8038 13.68 39.5878 13.788 39.3958 14.004C39.2158 14.208 39.0718 14.55 38.9638 15.03C38.8558 15.51 38.8018 16.158 38.8018 16.974L38.1718 17.19ZM38.3698 10.746L38.8018 14.76V23.562C38.8018 23.946 38.8618 24.222 38.9818 24.39C39.1018 24.558 39.3538 24.684 39.7378 24.768L41.1598 25.038C41.4838 25.11 41.7178 25.224 41.8618 25.38C42.0058 25.536 42.0778 25.758 42.0778 26.046C42.0778 26.346 41.9758 26.58 41.7718 26.748C41.5678 26.916 41.2678 27 40.8718 27H30.9358C30.5038 27 30.1918 26.916 29.9998 26.748C29.8198 26.58 29.7298 26.346 29.7298 26.046C29.7298 25.842 29.7838 25.662 29.8918 25.506C29.9998 25.338 30.1798 25.2 30.4318 25.092L30.8638 24.93C31.0318 24.846 31.1518 24.714 31.2238 24.534C31.2958 24.354 31.3318 24.048 31.3318 23.616V14.562C31.3318 14.214 31.2838 13.968 31.1878 13.824C31.1038 13.668 30.9658 13.566 30.7738 13.518L30.3238 13.41C30.0958 13.338 29.9278 13.236 29.8198 13.104C29.7238 12.96 29.6758 12.786 29.6758 12.582C29.6758 12.33 29.7478 12.126 29.8918 11.97C30.0358 11.814 30.2938 11.67 30.6658 11.538L34.9498 10.008C35.6938 9.72 36.2278 9.534 36.5518 9.45C36.8878 9.366 37.1518 9.324 37.3438 9.324C37.6438 9.324 37.8718 9.438 38.0278 9.666C38.1838 9.882 38.2978 10.242 38.3698 10.746ZM57.6104 10.728V23.598C57.6104 24.03 57.6464 24.342 57.7184 24.534C57.7904 24.714 57.9164 24.846 58.0964 24.93L58.5284 25.11C58.7804 25.206 58.9604 25.338 59.0684 25.506C59.1764 25.662 59.2304 25.842 59.2304 26.046C59.2304 26.346 59.1344 26.58 58.9424 26.748C58.7504 26.916 58.4444 27 58.0244 27H49.7264C49.3064 27 49.0004 26.916 48.8084 26.748C48.6164 26.58 48.5204 26.346 48.5204 26.046C48.5204 25.842 48.5744 25.662 48.6824 25.506C48.7904 25.338 48.9704 25.206 49.2224 25.11L49.6544 24.93C49.8344 24.846 49.9604 24.714 50.0324 24.534C50.1044 24.342 50.1404 24.03 50.1404 23.598V14.508C50.1404 14.172 50.0924 13.932 49.9964 13.788C49.9004 13.632 49.7564 13.53 49.5644 13.482L49.1324 13.374C48.9044 13.302 48.7364 13.2 48.6284 13.068C48.5324 12.924 48.4844 12.744 48.4844 12.528C48.4844 12.276 48.5504 12.078 48.6824 11.934C48.8264 11.79 49.0844 11.646 49.4564 11.502L53.8664 9.9C54.4424 9.672 54.8924 9.516 55.2164 9.432C55.5404 9.348 55.8344 9.306 56.0984 9.306C56.6024 9.306 56.9804 9.438 57.2324 9.702C57.4844 9.966 57.6104 10.308 57.6104 10.728ZM53.5244 7.794C52.2164 7.794 51.1784 7.476 50.4104 6.84C49.6424 6.204 49.2584 5.352 49.2584 4.284C49.2584 3.228 49.6424 2.388 50.4104 1.764C51.1784 1.14 52.2164 0.827998 53.5244 0.827998C54.8324 0.827998 55.8704 1.14 56.6384 1.764C57.4064 2.388 57.7904 3.228 57.7904 4.284C57.7904 5.352 57.4064 6.204 56.6384 6.84C55.8704 7.476 54.8324 7.794 53.5244 7.794ZM69.2139 25.452C69.8979 25.452 70.4079 25.302 70.7439 25.002C71.0799 24.702 71.2479 24.33 71.2479 23.886C71.2479 23.622 71.1879 23.37 71.0679 23.13C70.9599 22.89 70.7259 22.674 70.3659 22.482C70.0059 22.278 69.4419 22.104 68.6739 21.96C66.5259 21.564 64.8879 21.054 63.7599 20.43C62.6319 19.806 61.8579 19.08 61.4379 18.252C61.0299 17.412 60.8259 16.47 60.8259 15.426C60.8259 13.506 61.4919 12.006 62.8239 10.926C64.1559 9.846 66.0999 9.306 68.6559 9.306C69.5559 9.306 70.2699 9.378 70.7979 9.522C71.3379 9.666 71.7639 9.81 72.0759 9.954C72.3999 10.098 72.6819 10.17 72.9219 10.17C73.1979 10.17 73.4319 10.098 73.6239 9.954C73.8279 9.81 74.0319 9.666 74.2359 9.522C74.4519 9.378 74.7039 9.306 74.9919 9.306C75.2199 9.306 75.4239 9.384 75.6039 9.54C75.7959 9.684 75.9459 9.96 76.0539 10.368L76.9719 13.914C77.1399 14.466 77.1879 14.91 77.1159 15.246C77.0439 15.57 76.8399 15.792 76.5039 15.912C76.1799 16.044 75.8919 16.05 75.6399 15.93C75.3879 15.81 75.1419 15.576 74.9019 15.228C74.3139 14.328 73.7079 13.59 73.0839 13.014C72.4719 12.438 71.8359 12.012 71.1759 11.736C70.5279 11.46 69.8439 11.322 69.1239 11.322C68.3319 11.322 67.7379 11.478 67.3419 11.79C66.9579 12.102 66.7659 12.51 66.7659 13.014C66.7659 13.35 66.8499 13.644 67.0179 13.896C67.1859 14.136 67.5219 14.358 68.0259 14.562C68.5419 14.766 69.3039 14.97 70.3119 15.174C72.0039 15.498 73.3419 15.954 74.3259 16.542C75.3219 17.118 76.0359 17.826 76.4679 18.666C76.8999 19.494 77.1159 20.466 77.1159 21.582C77.1159 22.77 76.7979 23.808 76.1619 24.696C75.5259 25.584 74.6619 26.274 73.5699 26.766C72.4779 27.246 71.2359 27.486 69.8439 27.486C68.9799 27.486 68.2959 27.408 67.7919 27.252C67.2879 27.096 66.8739 26.946 66.5499 26.802C66.2259 26.646 65.9259 26.568 65.6499 26.568C65.3739 26.568 65.1099 26.646 64.8579 26.802C64.6059 26.946 64.3599 27.09 64.1199 27.234C63.8799 27.39 63.6279 27.468 63.3639 27.468C63.1239 27.468 62.9199 27.378 62.7519 27.198C62.5959 27.03 62.4759 26.73 62.3919 26.298L61.8339 22.986C61.7379 22.434 61.7319 22.026 61.8159 21.762C61.8999 21.486 62.0919 21.282 62.3919 21.15C62.7159 21.018 63.0039 21.024 63.2559 21.168C63.5079 21.312 63.7659 21.57 64.0299 21.942C64.9059 23.214 65.7759 24.12 66.6399 24.66C67.5159 25.188 68.3739 25.452 69.2139 25.452ZM88.2239 10.728V12.384L88.5299 12.996V31.986C88.5299 32.418 88.5659 32.724 88.6379 32.904C88.7099 33.096 88.8299 33.234 88.9979 33.318L89.4479 33.498C89.6879 33.594 89.8619 33.72 89.9699 33.876C90.0779 34.044 90.1319 34.23 90.1319 34.434C90.1319 34.734 90.0359 34.968 89.8439 35.136C89.6639 35.304 89.3579 35.388 88.9259 35.388H80.6459C80.2259 35.388 79.9199 35.304 79.7279 35.136C79.5359 34.968 79.4399 34.734 79.4399 34.434C79.4399 34.23 79.4939 34.044 79.6019 33.876C79.7099 33.72 79.8899 33.594 80.1419 33.498L80.5739 33.318C80.7539 33.234 80.8739 33.096 80.9339 32.904C81.0059 32.724 81.0419 32.418 81.0419 31.986V14.508C81.0419 14.172 80.9939 13.932 80.8979 13.788C80.8139 13.632 80.6759 13.53 80.4839 13.482L80.0339 13.374C79.8059 13.302 79.6379 13.2 79.5299 13.068C79.4339 12.924 79.3859 12.744 79.3859 12.528C79.3859 12.276 79.4579 12.084 79.6019 11.952C79.7459 11.82 80.0039 11.67 80.3759 11.502L84.4619 9.9C84.9899 9.672 85.4219 9.516 85.7579 9.432C86.0939 9.348 86.3999 9.306 86.6759 9.306C87.1919 9.306 87.5759 9.438 87.8279 9.702C88.0919 9.966 88.2239 10.308 88.2239 10.728ZM87.3059 15.426L86.1719 14.328C87.1559 12.756 88.2539 11.526 89.4659 10.638C90.6779 9.75 92.0699 9.306 93.6419 9.306C95.0699 9.306 96.3359 9.666 97.4399 10.386C98.5559 11.094 99.4319 12.09 100.068 13.374C100.716 14.646 101.04 16.122 101.04 17.802C101.04 19.734 100.644 21.432 99.8519 22.896C99.0719 24.348 97.9979 25.476 96.6299 26.28C95.2739 27.084 93.7379 27.486 92.0219 27.486C90.6179 27.486 89.4059 27.198 88.3859 26.622C87.3659 26.046 86.4899 25.164 85.7579 23.976L87.5039 22.806C88.0079 23.55 88.4939 24.084 88.9619 24.408C89.4299 24.72 89.9399 24.876 90.4919 24.876C91.0679 24.876 91.5659 24.672 91.9859 24.264C92.4179 23.856 92.7479 23.19 92.9759 22.266C93.2159 21.33 93.3359 20.088 93.3359 18.54C93.3359 17.136 93.2159 16.008 92.9759 15.156C92.7359 14.304 92.4119 13.686 92.0039 13.302C91.5959 12.906 91.1219 12.708 90.5819 12.708C89.9459 12.708 89.3579 12.924 88.8179 13.356C88.2779 13.788 87.7739 14.478 87.3059 15.426ZM115.962 23.166L111.93 30.132L103.884 13.338C103.668 12.858 103.446 12.504 103.218 12.276C102.99 12.048 102.708 11.856 102.372 11.7C102.144 11.592 101.982 11.472 101.886 11.34C101.79 11.196 101.742 11.004 101.742 10.764C101.742 10.476 101.844 10.248 102.048 10.08C102.252 9.912 102.534 9.828 102.894 9.828H112.596C112.944 9.828 113.22 9.912 113.424 10.08C113.64 10.248 113.748 10.476 113.748 10.764C113.748 11.004 113.682 11.196 113.55 11.34C113.43 11.472 113.232 11.58 112.956 11.664L112.416 11.826C111.96 11.946 111.69 12.168 111.606 12.492C111.522 12.816 111.642 13.35 111.966 14.094L115.962 23.166ZM112.038 28.602L112.596 27.252L113.478 25.578L117.888 14.418C118.188 13.674 118.29 13.116 118.194 12.744C118.11 12.36 117.822 12.09 117.33 11.934L116.7 11.736C116.436 11.652 116.238 11.532 116.106 11.376C115.974 11.208 115.908 11.004 115.908 10.764C115.908 10.476 116.01 10.248 116.214 10.08C116.418 9.912 116.694 9.828 117.042 9.828H122.01C122.37 9.828 122.652 9.912 122.856 10.08C123.06 10.248 123.162 10.476 123.162 10.764C123.162 10.956 123.102 11.13 122.982 11.286C122.874 11.442 122.688 11.586 122.424 11.718C121.944 11.934 121.548 12.216 121.236 12.564C120.924 12.9 120.618 13.446 120.318 14.202L114.756 27.9C113.952 29.88 113.226 31.416 112.578 32.508C111.942 33.612 111.24 34.374 110.472 34.794C109.716 35.226 108.75 35.442 107.574 35.442C105.918 35.442 104.592 34.992 103.596 34.092C102.612 33.192 102.12 32.064 102.12 30.708C102.12 29.712 102.372 28.932 102.876 28.368C103.38 27.804 104.046 27.522 104.874 27.522C105.69 27.522 106.314 27.75 106.746 28.206C107.178 28.674 107.562 29.304 107.898 30.096L108.276 30.96C108.444 31.356 108.636 31.68 108.852 31.932C109.068 32.184 109.302 32.31 109.554 32.31C109.782 32.31 109.998 32.22 110.202 32.04C110.406 31.86 110.652 31.5 110.94 30.96C111.228 30.432 111.594 29.646 112.038 28.602ZM127.593 27.522C126.813 27.522 126.105 27.324 125.469 26.928C124.833 26.532 124.329 26.004 123.957 25.344C123.585 24.684 123.399 23.97 123.399 23.202C123.399 22.422 123.585 21.714 123.957 21.078C124.329 20.43 124.833 19.914 125.469 19.53C126.105 19.146 126.813 18.954 127.593 18.954C128.385 18.954 129.099 19.146 129.735 19.53C130.371 19.914 130.875 20.43 131.247 21.078C131.619 21.714 131.805 22.422 131.805 23.202C131.805 23.97 131.619 24.684 131.247 25.344C130.875 26.004 130.371 26.532 129.735 26.928C129.099 27.324 128.385 27.522 127.593 27.522Z" fill="#151515"/>
</svg>
